<svg xmlns="http://www.w3.org/2000/svg" viewBox="0 0 208.88 228.71"><defs><style>.af73e28c-2906-4528-b789-4ad9feb312e9{fill:#fff;stroke:#fff;stroke-miterlimit:10;}</style></defs><title>Asset 1</title><g id="aa5b1877-e00a-493d-b2bc-66880d42f78a" data-name="Layer 2"><g id="b57c6105-ffc3-4c33-a34c-e9ba290d5b2a" data-name="Capa 1"><path class="af73e28c-2906-4528-b789-4ad9feb312e9" d="M45,85.94l.19,2.75c0,.58.23.85.68.73l0-1.16,5.27-.36c2.09-.15,3.15.64,3.26,2.23.13,1.88-.51,2.71-3.28,2.91l-4.84.34-.14-.79c-.08-.48-.24-.71-.74-.63l.22,3.13c0,.58.27.85.72.73l0-1,5.46-.38c3-.21,3.79-1.51,3.62-4s-1.83-4-4.81-3.74l-4.86.34-.1-.52c-.09-.48-.21-.7-.71-.61"/><path class="af73e28c-2906-4528-b789-4ad9feb312e9" d="M45.1,73.81l-.05,2.68c0,.58.26.89.73.8l.15-1.21,6.87.12L45,81.94l0,1.45c0,.66.4.85.7.73l.24-1.24L54,83l.22.89a.45.45,0,0,0,.6.36c0-.41,0-1,0-1.58s0-1.19.06-1.64a.58.58,0,0,0-.58-.61L54,81.91l-6.45-.11,6.83-4.93c.61-.45.79-.73.79-1.07a1.65,1.65,0,0,0-.1-.67L46,75l-.09-.6c-.06-.47-.26-.63-.76-.57"/><path class="af73e28c-2906-4528-b789-4ad9feb312e9" d="M55.44,69.7,55,71.1l-8.21-1v-.73c0-.48-.11-.69-.62-.69-.35,2.88-.37,3.11-.37,3.11-.08.57.1.88.56.85l.25-1.17,8.21,1,.09.94c0,.47.29.61.59.54,0-.44.11-1.15.19-1.83s.15-1.25.23-1.65a.59.59,0,0,0-.5-.77"/><path class="af73e28c-2906-4528-b789-4ad9feb312e9" d="M48.12,58.08l-.55,2.84c-.1.52.17.8.49.79l.42-1.13,6.64,3.57-7.53,1.1.08-.83a.76.76,0,0,0-.61-.9l-.62,3.21c-.09.47.13.9.57.9l.31-.9,9.81-1.39a1.81,1.81,0,0,0-1.05-1.78l-7.25-4c.27-.9,0-1.35-.71-1.44"/><path class="af73e28c-2906-4528-b789-4ad9feb312e9" d="M57.71,52.05c-.29.32-.3.71.22,1.11l.93.73-1.24,3.46-3.46-1.06.8-2.61,1,.34a.66.66,0,0,0-.37-1c-.65-.2-1.2-.38-2.07-.7a.59.59,0,0,0-.13.64c.14.27.31.34.77.48L53.32,56,49.87,55,51,51.81l1.46.21c.22-.35.16-.78-.28-.88l-1.82-.45-1.53,5c-.44,1.44-.23,1.6.25,1.65l.43-1,7.86,2.41,0,.84a.47.47,0,0,0,.51.52l2.07-6.79Z"/><path class="af73e28c-2906-4528-b789-4ad9feb312e9" d="M56.16,44.23A2.12,2.12,0,0,1,57.3,47.3a4.75,4.75,0,0,1-.28.55L52.92,46c.08-.23.18-.45.27-.65a2.09,2.09,0,0,1,3-1.15m8-.46A4.2,4.2,0,0,1,62,44.83l-3.73.93a3.14,3.14,0,0,0-1.86-3c-1.48-.66-3,.08-3.81,2-1.07,2.39-1.38,3.38-.92,3.58a.53.53,0,0,0,.18,0l.64-1.08L60,50.7l-.14.95a.47.47,0,0,0,.41.58c.23-.61.42-1,.67-1.6s.52-1.09.78-1.67a.67.67,0,0,0-.27-.84l-.85,1.33-3-1.32.43-1L62,46.31c1.49-.32,1.86-.7,2.23-1.52a.88.88,0,0,0-.11-1"/><path class="af73e28c-2906-4528-b789-4ad9feb312e9" d="M65.13,36c-1.44-.83-2.41-.35-3.85.86-1.08.94-1.94,1.34-2.77.86a1.68,1.68,0,0,1-.39-2.27A5.73,5.73,0,0,1,59.22,34l1.23.76a.7.7,0,0,0-.13-1.14L59,32.71a12.94,12.94,0,0,0-1.48,2,3.19,3.19,0,0,0,.84,4.45c.93.53,2,.33,3.27-.73,1.72-1.44,2.51-1.47,3.29-1a1.89,1.89,0,0,1,.46,2.47c-.75,1.3-1.58,1.61-2.81.9a1.12,1.12,0,0,0,.31,1.6C64,43,65.11,42.24,66,40.79c1-1.73.66-3.94-.82-4.8"/><path class="af73e28c-2906-4528-b789-4ad9feb312e9" d="M69.89,33.24l-1.11.95L62.35,29l.4-.61c.27-.41.27-.65-.16-.92-1.82,2.26-2,2.43-2,2.43-.36.45-.38.81,0,1l.83-.85,6.43,5.21-.43.84c-.2.42-.07.67.22.76.25-.36.71-.91,1.14-1.44s.79-1,1.07-1.28a.58.58,0,0,0,0-.91"/><path class="af73e28c-2906-4528-b789-4ad9feb312e9" d="M74,28.13a8.15,8.15,0,0,1-1.53,1.2l-5.65-6.09c2.69-2.5,4.94-2.49,7.06-.21,1.66,1.78,1.43,3.87.12,5.1m.61-6.46c-2.14-2.29-4.73-2.29-7.27.07-2,1.91-2.52,2.62-2.62,3a.33.33,0,0,0,.23.4l1-.74,5.57,6-.49.75c-.21.31-.18.6.12.75.22-.22,1-1,1.55-1.47s1.38-1.21,1.7-1.51c2.45-2.29,2.21-5,.19-7.19"/><path class="af73e28c-2906-4528-b789-4ad9feb312e9" d="M80.66,17.72l-2.34,1.52L77.2,15Zm5.65,1.19-1.13.41-7.93-5.86a2.76,2.76,0,0,0-.57.29.92.92,0,0,0-.4,1.12l2.09,8.85-.55.61a.44.44,0,0,0,.11.65c.32-.24.77-.53,1.2-.82s1-.64,1.39-.87a.58.58,0,0,0,.26-.79l-1.41.61-.82-3,2.8-1.82,2.46,1.91L83,21a.42.42,0,0,0,.05.64c.34-.26.89-.61,1.44-1s1.17-.75,1.55-1a.61.61,0,0,0,.28-.81"/><path class="af73e28c-2906-4528-b789-4ad9feb312e9" d="M91.49,17.05a7.76,7.76,0,0,1-1.89.44l-2.55-7.9c3.5-1.14,5.53-.17,6.5,2.79a3.47,3.47,0,0,1-2.06,4.67m3.29-5.6c-1-3-3.32-4.07-6.63-3-2.65.86-3.39,1.31-3.62,1.57a.34.34,0,0,0,0,.47l1.23-.24L88.32,18l-.75.46c-.32.2-.41.47-.21.74.29-.11,1.32-.46,2-.69s1.76-.51,2.18-.65c3.19-1,4.12-3.62,3.21-6.43"/><path class="af73e28c-2906-4528-b789-4ad9feb312e9" d="M105.67,16.17a7.75,7.75,0,0,1-1.88-.46l1.31-8.2c3.63.57,5,2.36,4.52,5.43-.38,2.4-2.17,3.52-4,3.23m5.46-3.49c.49-3.09-1.1-5.14-4.54-5.68-2.75-.44-3.61-.38-3.94-.25a.33.33,0,0,0-.17.44l1.2.34-1.27,8.07-.89.07c-.38,0-.58.24-.52.57.31,0,1.38.18,2.12.3s1.8.34,2.23.42c3.32.52,5.32-1.36,5.78-4.28"/><path class="af73e28c-2906-4528-b789-4ad9feb312e9" d="M118.58,19.45c-.27-.34-.66-.41-1.13,0l-.87.82-3.22-1.78,1.58-3.24,2.46,1.19-.49.9a.67.67,0,0,0,1.08-.21c.3-.61.57-1.12,1-1.93a.59.59,0,0,0-.61-.23c-.28.09-.38.25-.59.69l-2.47-1.21,1.58-3.24,3,1.58-.43,1.41a.55.55,0,0,0,.92-.15l.72-1.72-4.69-2.29c-1.36-.66-1.54-.48-1.67,0l1,.58L112.07,18l-.83-.17a.48.48,0,0,0-.6.42L117,21.39Z"/><path class="af73e28c-2906-4528-b789-4ad9feb312e9" d="M128.59,28.12a.67.67,0,0,0-1-.34l-1.2.57-2.56-2.64,5.55-5.95.71.56c.37.29.66.33,1-.07L128.67,18c-.42-.4-.79-.43-1,0l.74.85-5.63,6-.78-.41a.44.44,0,0,0-.64.25l5.2,4.85Z"/><path class="af73e28c-2906-4528-b789-4ad9feb312e9" d="M136.21,33.51c-2.12,1.71-4,1.56-5.18.08s-.95-3.3,1.39-5.2c1.85-1.49,3.77-1.62,5-.06,1.46,1.8.62,3.68-1.24,5.18m1.43.71c2.34-1.89,2.6-4,.91-6.14-2-2.43-5-2.45-7.62-.33-2.17,1.76-2.71,3.95-1,6,2,2.46,4.94,2.7,7.73.43"/><path class="af73e28c-2906-4528-b789-4ad9feb312e9" d="M139.16,43.09c1.44-.83,1.51-1.91,1.18-3.77-.27-1.4-.18-2.34.64-2.82a1.68,1.68,0,0,1,2.17.8,6,6,0,0,1,.67,1.66l-1.27.68a.7.7,0,0,0,1.06.46l1.46-.69a12.39,12.39,0,0,0-1-2.29,3.18,3.18,0,0,0-4.26-1.5c-.94.54-1.29,1.57-1,3.2.38,2.21,0,2.92-.75,3.36a1.91,1.91,0,0,1-2.38-.83c-.75-1.31-.6-2.18.64-2.89a1.12,1.12,0,0,0-1.54-.53c-1.12.64-1,2-.16,3.47,1,1.73,3.09,2.54,4.57,1.69"/><path class="af73e28c-2906-4528-b789-4ad9feb312e9" d="M144.64,52.17l-.95-2.62,4.39-.13Zm-2.42,5.23-.16-1.19,7.5-6.41a3,3,0,0,0-.16-.62.9.9,0,0,0-1-.64l-9.09.05-.48-.67a.45.45,0,0,0-.66-.05c.17.37.36.87.53,1.36s.4,1.13.53,1.55a.6.6,0,0,0,.73.43l-.28-1.51,3.14-.11L144,52.73l-2.41,2-.66-1a.42.42,0,0,0-.63-.1c.17.39.4,1,.62,1.62s.46,1.31.6,1.73a.6.6,0,0,0,.73.45"/><path class="af73e28c-2906-4528-b789-4ad9feb312e9" d="M153.64,66.33l-.56-2.63c-.12-.56-.45-.8-.89-.62l.13,1.22-6.72,1.43L152,58.37l-.3-1.41c-.14-.65-.58-.75-.85-.56l0,1.26-7.94,1.69-.43-.83a.44.44,0,0,0-.66-.21c.12.39.24,1,.36,1.53s.23,1.18.31,1.62a.57.57,0,0,0,.71.46l-.06-1.49,6.31-1.34-5.54,6.34c-.5.58-.6.89-.53,1.22a1.47,1.47,0,0,0,.25.63l8.93-1.9.21.56c.17.44.39.55.87.39"/><path class="af73e28c-2906-4528-b789-4ad9feb312e9" d="M145.25,73.15a8.2,8.2,0,0,1,0-1.94l8.27-.71c.32,3.66-1.07,5.43-4.18,5.7a3.47,3.47,0,0,1-4.09-3M150,77.61c3.12-.28,4.72-2.32,4.42-5.78-.25-2.79-.51-3.6-.73-3.89a.32.32,0,0,0-.46-.06l0,1.25-8.14.71-.28-.84c-.12-.36-.36-.5-.67-.37,0,.31.15,1.39.21,2.13s.1,1.83.14,2.27c.29,3.35,2.6,4.83,5.55,4.58"/><path class="af73e28c-2906-4528-b789-4ad9feb312e9" d="M147.27,86.71c.2-.39.1-.77-.49-1l-1.1-.46.31-3.67,3.61.13-.09,2.73-1-.08a.66.66,0,0,0,.61.9c.69,0,1.26.06,2.19.14a.63.63,0,0,0,0-.66c-.21-.22-.39-.24-.87-.26l.1-2.74,3.6.13-.24,3.34-1.46.18c-.12.39.05.79.51.78l1.86,0,.19-5.22c.05-1.51-.19-1.6-.67-1.53l-.14,1.1-8.22-.28-.18-.83a.48.48,0,0,0-.63-.37l-.24,7.1Z"/><path class="af73e28c-2906-4528-b789-4ad9feb312e9" d="M147,94.67c1.64.2,2.36-.62,3.2-2.3.64-1.28,1.27-2,2.22-1.87a1.68,1.68,0,0,1,1.25,1.94,6.08,6.08,0,0,1-.46,1.74L151.8,94a.7.7,0,0,0,.57,1l1.58.33a13.52,13.52,0,0,0,.58-2.44A3.18,3.18,0,0,0,152,89.09c-1.07-.13-2,.47-2.73,1.94-1,2-1.75,2.34-2.64,2.23a1.9,1.9,0,0,1-1.39-2.1c.19-1.49.83-2.1,2.24-1.92a1.11,1.11,0,0,0-.9-1.35c-1.29-.16-2,1-2.21,2.68-.25,2,.92,3.89,2.63,4.1"/><path class="af73e28c-2906-4528-b789-4ad9feb312e9" d="M44.86,52.11a105,105,0,0,0-4.74,31.52V84c0,45.6,27.16,81.43,59.45,81.43S159,129.55,159,84v-.32a105.66,105.66,0,0,0-4.78-31.69C145,22.54,123.78,2.53,99.57,2.53S54,22.62,44.86,52.11M38.09,83.63a107.53,107.53,0,0,1,4.83-32.14C52.24,21.54,74.1.5,99.57.5s47.25,20.94,56.62,50.83a107.59,107.59,0,0,1,4.87,32.3V84c0,46.1-27.53,83.47-61.49,83.47S38.09,130.05,38.09,84Z"/><path class="af73e28c-2906-4528-b789-4ad9feb312e9" d="M83.34,154.94a.61.61,0,0,0-1-.06l-.85.81a5.38,5.38,0,0,1-2-.65c-1.75-.94-2.48-2.81-.93-5.75a3.49,3.49,0,0,1,5.14-1.61,5.23,5.23,0,0,1,1.43,1L84.34,150c.32.34.71.34,1.13-.19l.93-1.24a6.68,6.68,0,0,0-2-1.57,5.17,5.17,0,0,0-7.41,2.2c-1.55,2.9-.83,5.19,1.67,6.51a7.72,7.72,0,0,0,3.35.91Z"/><path class="af73e28c-2906-4528-b789-4ad9feb312e9" d="M95.31,160.89l-1.35-.6,2-8.08.66.09c.49,0,.75,0,.82-.5-2.82-.71-3-.77-3-.77-.56-.13-.88,0-.9.46l1.09.37-.88,3.5-5.27-1.31.89-3.49.78.12c.47.06.75,0,.82-.52-2.84-.69-3.16-.79-3.16-.79-.58-.13-.91,0-.92.46l1.12.39-2,8.09H85a.45.45,0,0,0-.47.52l1.9.42c.68.17,1.15.3,1.49.41a.69.69,0,0,0,.94-.38l-1.48-.62.93-3.75,5.27,1.31L92.63,160h-1c-.37,0-.53.25-.48.5l1.95.48c.56.13,1.09.28,1.48.37a.57.57,0,0,0,.76-.41"/><path class="af73e28c-2906-4528-b789-4ad9feb312e9" d="M103.56,160.85l-1.48-.17-.44-8.31.73-.12c.49-.06.66-.23.58-.72-2.92.15-3.15.15-3.15.15-.57,0-.85.27-.72.72l1.18.06.43,8.3-.91.24c-.46.14-.54.4-.42.67.43,0,1.14-.08,1.84-.12s1.26-.06,1.67-.06a.62.62,0,0,0,.69-.64"/><path class="af73e28c-2906-4528-b789-4ad9feb312e9" d="M114.32,156a.69.69,0,0,0-.79.68l-.1,1.32-3.57.93-2.4-7.84.84-.34c.45-.19.61-.4.43-.87l-3.17,1c-.55.17-.76.46-.55.87l1.11-.21,2.44,7.92-.77.49a.44.44,0,0,0-.08.68l6.84-2.1Z"/><path class="af73e28c-2906-4528-b789-4ad9feb312e9" d="M122.51,151.42c-.44,0-.73.32-.61,1l.19,1.18-3.29,1.68L117,152.1l2.38-1.37.47.92a.67.67,0,0,0,.43-1c-.34-.58-.61-1.1-1-1.93a.63.63,0,0,0-.53.39c-.08.28,0,.45.25.88l-2.4,1.38-1.82-3.16,3-1.56.94,1.15c.4-.11.65-.47.4-.86l-1-1.56L113.47,148c-1.34.77-1.29,1-1,1.38l1-.46,4.15,7.15-.62.61a.47.47,0,0,0,0,.73l6.2-3.57Z"/><path class="af73e28c-2906-4528-b789-4ad9feb312e9" d="M66.33,140.6a2.08,2.08,0,0,1,4.15,0,2.08,2.08,0,1,1-4.15,0"/><path class="af73e28c-2906-4528-b789-4ad9feb312e9" d="M128.68,140.6a2.07,2.07,0,1,1,4.13,0,2.07,2.07,0,1,1-4.13,0"/><path class="af73e28c-2906-4528-b789-4ad9feb312e9" d="M140.69,83.63a87.11,87.11,0,0,0-3.92-26.18c-7.85-25.08-24-36.59-37.19-36.59S70.17,32.42,62.35,57.58A89.46,89.46,0,0,0,58.45,84c0,41,23.71,63.1,41.13,63.1s41.11-22.42,41.11-63.42m-41.82-.39h-39A88.67,88.67,0,0,1,63.7,58c7.57-24.33,22.9-35.29,35.17-35.7Zm0,62.38c-16.17-.6-38.72-21.41-39-60.95h39Zm1.43-60.95h39c-.4,39.35-22.87,60.35-39,61Zm39-1.43h-39V22.3c12.23.41,27.51,11.33,35.1,35.58a85.23,85.23,0,0,1,3.87,25.36"/><path class="af73e28c-2906-4528-b789-4ad9feb312e9" d="M117.36,110.88h10.88a.74.74,0,0,0,.68-.72v-12c0-.32,0-.58.61-.58s.58.3.58.58V111a.94.94,0,0,1-1.06,1.07H105.7a1,1,0,0,1-1.07-1.07V98.16c0-.28,0-.58.58-.58s.61.26.61.58v12a.73.73,0,0,0,.68.72Z"/><path class="af73e28c-2906-4528-b789-4ad9feb312e9" d="M117.37,108.81h8.43c1.27,0,1.19-.59.69-.83-2.39-.9-6-1.08-8.06,0-.83.45-.69-.38-.69-.72V96.53c0-.59.68-2.27,6.73-2,3.26.12,3.3.73,3.3,1.17V108.9a.94.94,0,0,1-1,1H108a.92.92,0,0,1-1-1V95.67c0-.44,0-1.06,3.29-1.17,6-.19,6.73,1.44,6.73,2v10.73c0,.34.14,1.17-.71.72-2-1.08-5.67-.9-8.05,0-.49.24-.58.83.72.83Z"/><path class="af73e28c-2906-4528-b789-4ad9feb312e9" d="M130.13,60.48c-.21-.3-.75,0-1.25,0-1.44-.08-2.3-.76-3.73-1-.41-.08-.85-.25-1.07-.31,1.82-.67,2.92-2.91,2-3.41-.33-.16-.56.46-1,.68-1.07.65-2-.1-3.06.56a5.15,5.15,0,0,0,1-1.81c.61-1.35,1.57-3.74.55-3.77-.35,0-.42.62-.74,1-1,1.09-2,1.36-3,2.29-.29.28-.61.52-.8.7.52-1.87-.69-4.09-1.66-3.6-.31.17.06.71,0,1.18-.09,1.21-1.21,1.52-1.35,2.69a5,5,0,0,0-.87-1.86c-.74-1.3-2.09-3.47-2.72-2.68-.24.28.25.72.33,1.18.32,1.42-.08,2.44.09,3.72,0,.26.06.56.11.85-1.12-1.5-3.46-2-3.69-.95-.06.36.57.43.91.76.85.85.38,1.89,1.2,2.76a5.18,5.18,0,0,0-2-.52c-1.47-.27-4-.63-3.8.36.08.36.7.28,1.14.5,1.28.66,1.8,1.63,2.88,2.32.24.16.47.32.72.47-1.87,0-3.7,1.52-3,2.32.25.29.71-.18,1.16-.23,1.22-.15,1.75.86,2.92.75a5.22,5.22,0,0,0-1.66,1.24c-1.1,1-3,2.79-2,3.24.32.17.64-.39,1.07-.59,1.32-.61,2.41-.42,3.61-.84.26-.09.55-.18.81-.29C111.89,69.62,111.92,72,113,72c.37,0,.31-.65.55-1,.67-1,1.78-.77,2.46-1.75a5.06,5.06,0,0,0-.1,2.08c.06,1.48.23,4,1.16,3.62.32-.14.11-.74.24-1.21.38-1.39,1.22-2.09,1.66-3.3a4.08,4.08,0,0,0,.3-.85c.26,1.92,2.23,3.47,2.91,2.62.22-.27-.33-.63-.48-1.06-.4-1.14.48-1.88.14-3a5.09,5.09,0,0,0,1.56,1.36c1.21.88,3.33,2.31,3.58,1.33.09-.36-.52-.56-.8-1-.86-1.15-.91-2.25-1.57-3.33a3.68,3.68,0,0,1-.41-.85c1.69,1,4.22.53,4-.57-.07-.38-.71-.17-1.15-.34-1.14-.42-1.16-1.53-2.18-2a6,6,0,0,0,2-.34c1.44-.37,3.91-1.07,3.32-1.9M124,62.56a6.17,6.17,0,1,1-6.18-6.17A6.18,6.18,0,0,1,124,62.56"/><path class="af73e28c-2906-4528-b789-4ad9feb312e9" d="M112.84,62.56a5,5,0,1,1,5,5,4.94,4.94,0,0,1-5-5"/><path class="af73e28c-2906-4528-b789-4ad9feb312e9" d="M76.67,96.26l1.43-1.41H77a.76.76,0,0,0-.74.75.8.8,0,0,0,.39.66m8.13,0a.83.83,0,0,0,.4-.66.76.76,0,0,0-.76-.75H83.37ZM80.71,93a2.26,2.26,0,0,1,1.18.26,2.39,2.39,0,0,1,.79.65H84.9A1.54,1.54,0,0,1,86.27,95a2.27,2.27,0,0,1-.76,2.09c.47.41,4.6,4.47,5.08,4.94a3.17,3.17,0,0,1,.73,3.13c-.19.72-.71,1-1.11.65s-5.76-7.09-5.76-7.09-.17-.23-.31-.13-.06.21,0,.36,5.61,7.64,5.61,7.64a2.49,2.49,0,0,1,.42,1.81c-.19.69-1.21,2.26-2.06,2.48a1.3,1.3,0,0,1-1.57-.77c-1-2.61-3.6-10.47-3.6-10.47s-.18-.54-.43-.47-.1.58-.1.58l3.47,11.13a1.79,1.79,0,0,1-.37,1.84c-.44.46-1,.88-2.85,1.24-.19,0-1.36,0-1.45-1.07-.1-1.4-.21-13-.21-13s0-.52-.31-.52-.31.52-.31.52-.12,11.61-.22,13c-.08,1-1.24,1.07-1.44,1.07-1.84-.36-2.41-.76-2.85-1.24a1.78,1.78,0,0,1-.37-1.83L79,99.73s.16-.52-.1-.58-.44.48-.44.48-2.61,7.86-3.59,10.46a1.31,1.31,0,0,1-1.56.78,4.43,4.43,0,0,1-2.07-2.49,2.46,2.46,0,0,1,.42-1.8s5.54-7.47,5.62-7.63.17-.29,0-.38-.32.13-.32.13-5.41,6.83-5.75,7.09-.94.07-1.13-.65a3.28,3.28,0,0,1,.73-3.13c.51-.47,4.61-4.51,5.09-4.93a2.25,2.25,0,0,1-.75-2.1,1.54,1.54,0,0,1,1.37-1.06h2.23a2.7,2.7,0,0,1,.79-.65A2.2,2.2,0,0,1,80.71,93"/><path class="af73e28c-2906-4528-b789-4ad9feb312e9" d="M85.78,56.06a17.13,17.13,0,0,1-1.51,2.27c-.66.69,1,.86,1.42.31s1.19-1.91,1.19-1.91,0-1.09-.33-1.36-.77.69-.77.69m4.91,15a.52.52,0,0,1-.1.75.5.5,0,0,1-.75-.07l-1.35-1.68c-1.37.33-3.72-1.94-4.48-2.32s-2.17,2-2.89.36c-1.52-3.49-5.66,2.26-7.07,2.13s.26-1.84-.06-3-1.67,0-2.81.32a14,14,0,0,1-1.46.26l-3.27,4.06a.48.48,0,0,1-.73.06.5.5,0,0,1-.12-.75L76.45,57.1a7,7,0,0,1,.63-.82c.92-1,1.81-1.26,3.08.12.4.45,1.16,1.5,2,2.68.81-1.31,2.81-3.83,3.37-4.69a1.32,1.32,0,0,1,2.1-.3c.9.74,3.3,4.18,4.73,5.51a1,1,0,0,1,.23.23l1.51,1.53a.54.54,0,0,1,0,.78.48.48,0,0,1-.74,0L91.78,60.6a3.94,3.94,0,0,1-1.5,0c-.69-.17-1.82-1.2-1.38.84.13.67.32,1-.55,1.05s-3.56-2.38-4.15-1.56a3.21,3.21,0,0,1-.48.55c.84,1.39,7,9.63,7,9.63M77.16,62.76c0-1.15-.12-1.07.51-2A7.52,7.52,0,0,0,78.34,58c.09-.5-.49-.63-.67-.06s-.67.88-.93,1.32c-.83,1-2.2,3-2.67,3.77-.31.49-1.84,1.58-1.59,2.36.13.42.9.4,1.77-.52.49-.55.61-.69,1-.72.67.08,0,.7.77.89s1.14-1.53,1.14-2.25"/><path class="af73e28c-2906-4528-b789-4ad9feb312e9" d="M27,225.47c-2.74,1.88-5.94,2.74-10.62,2.74s-7.83-.8-10.69-2.74C1.76,222.78.5,219.64.5,212.72v-23H7.64v23.36c0,5.6,2.92,8.4,8.91,8.4,5.49,0,8.4-3,8.4-8.4V189.76h7.2v23C32.15,219.64,30.89,222.72,27,225.47Z"/><path class="af73e28c-2906-4528-b789-4ad9feb312e9" d="M60.94,227.47l-3-9.32H45.35l-3.09,9.32H34.72l13.65-37.71h6.46l13.66,37.71Zm-9.31-29.09L47.29,212H56Z"/><path class="af73e28c-2906-4528-b789-4ad9feb312e9" d="M97.16,227.81,81,203.41c-.11-.17-.34-.69-.8-1.49a4.8,4.8,0,0,0-.45-.79,5.67,5.67,0,0,1-.52-1.32v27.66H72.37V189.76h8.28l15.83,24.79c.06.12.23.4.4.8s.28.63.34.75l.34,1,.35.68v-28h6.79v38.05Z"/><path class="af73e28c-2906-4528-b789-4ad9feb312e9" d="M142.52,221.92c-3.48,3.72-8.45,5.55-15.25,5.55H113.33V189.76h14c7.14,0,11.6,1.6,15.31,5.54a19.4,19.4,0,0,1,5.08,13.2A19.7,19.7,0,0,1,142.52,221.92Zm-6.91-23.59c-2-1.49-4.91-2.23-9-2.23h-5.71v25h5.71c8.57,0,13.37-4.51,13.37-12.56C140,204.27,138.3,200.33,135.61,198.33Z"/><path class="af73e28c-2906-4528-b789-4ad9feb312e9" d="M152.58,227.47V189.76h23v6.11H159.78v9.31h12.91v6.12H159.78v10h16.51v6.12Z"/><path class="af73e28c-2906-4528-b789-4ad9feb312e9" d="M205.37,198.73c-4-1.77-7.26-2.69-9.78-2.69-3.36,0-5.54,1.37-5.54,3.49,0,1.6.92,2.57,3.6,4,5.77,3.08,9.54,5.48,11.31,7.25a9.63,9.63,0,0,1,2.58,6.74c0,6.75-4.92,10.69-13.26,10.69a22,22,0,0,1-3.37-.23c-2.68-.34-3.94-.8-7.88-2.63-.52-.23-1.37-.63-2.46-1.14l3-6.63a41.59,41.59,0,0,0,5.37,2.63,17.32,17.32,0,0,0,5.43,1.08c3.31,0,5.48-1.48,5.48-3.77,0-1.6-.86-2.68-3.31-4.05l-5.83-3.32c-6.69-3.82-8.74-6.34-8.74-10.45a10.13,10.13,0,0,1,1.48-5.26,10.92,10.92,0,0,1,2.8-2.8c2.74-1.88,5.09-2.51,9.49-2.51a24.22,24.22,0,0,1,7.08,1,33.59,33.59,0,0,1,5.37,2.17Z"/></g></g></svg>